<!DOCTYPE svg PUBLIC "-//W3C//DTD SVG 1.1//EN" "http://www.w3.org/Graphics/SVG/1.1/DTD/svg11.dtd">
<!-- Uploaded to: SVG Repo, www.svgrepo.com, Transformed by: SVG Repo Mixer Tools -->
<svg version="1.1" id="Capa_1" xmlns="http://www.w3.org/2000/svg" xmlns:xlink="http://www.w3.org/1999/xlink" width="800px" height="800px" viewBox="-35.82 -35.82 429.83 429.83" xml:space="preserve" fill="#ffffff" stroke="#ffffff" stroke-width="11.820402000000001">
<g id="SVGRepo_bgCarrier" stroke-width="0" transform="translate(0,0), scale(1)">
<rect x="-35.82" y="-35.82" width="429.83" height="429.83" rx="214.915" fill="#df3030" strokewidth="0"/>
</g>
<g id="SVGRepo_tracerCarrier" stroke-linecap="round" stroke-linejoin="round" stroke="#CCCCCC" stroke-width="6.447492"> <g> <path style="fill:#ffffff;" d="M179.1,0C80.341,0,0,80.344,0,179.1c0,98.75,80.341,179.094,179.1,179.094 c98.75,0,179.094-80.344,179.094-179.1S277.85,0,179.1,0z M154.778,254.92c-0.44-2.876,3.062-14.729,5.627-23.375 c2.916-9.858,6.218-21.03,7.582-29.882c1.709-11.1,2.676-12.546,4.14-14.736c1.083-1.617,2.559-3.824,4.352-8.313 c2.19-5.486,16.402-11.53,24.036-14.767c4.751-2.021,8.502-3.62,10.772-5.229c6.479-4.58,6.353-9.263,5.712-11.645 c-1.944-7.116-11.916-8.837-20.391-9.546c-14.826-1.241-34.036-16.974-39.371-28.988c-2.642-5.95-2.358-11.307-1.609-14.85 c4.414,0.749,10.956,0.566,17.037-1.172c0.323-0.091,0.535-0.117,0.652-0.117c1.692,0,4.543,5.727,6.241,9.146 c2.928,5.873,6.241,12.537,12.18,15.933c7.696,4.403,16.056,5.878,22.151,6.962c2.698,0.48,5.249,0.932,6.793,1.481 c1.144,0.412,2.315,0.621,3.493,0.621c7.92,0,13.066-8.243,15.359-24.533c3.03,0.649,6.707,0.463,10.961,0.057 c3.769-0.36,8.543-0.643,12.528-0.115c2.064,1.292,3.625,11.61,2.476,22.489l-0.148,1.406l0.503,1.315 c0.264,0.663,6.313,16.296,13.838,25.745c3.648,4.563,7.902,6.882,12.648,6.882c4.534,0,8.463-2.161,11.613-3.899 c0.863-0.475,1.721-0.949,2.567-1.353c8.291-3.994,5.975-14.27,4.438-21.068c-0.48-2.173-1.099-4.877-1.029-6.007 c0.16-3.167,0.08-7.028,0-10.758c-0.058-2.71-0.12-5.427-0.08-7.828c1.841-0.835,6.604-2.504,18.028-4.494 c11.671,23.115,17.817,48.895,17.817,74.829c-0.018,91.842-74.752,166.566-166.594,166.566 c-91.857,0-166.594-74.724-166.594-166.572c0-12.471,1.569-25.354,4.674-38.328c1.164,0.074,3.402,0.466,7.136,2.001 c9.306,3.834,19.901,20.668,23.358,27.109c0.449,0.737,11.107,18.264,20.405,28.848c1.81,2.064,3.537,3.945,5.184,5.746 c6.621,7.233,11.41,12.465,15.768,22.255c2.275,5.106,3.682,13.151,5.046,20.934c2.067,11.802,4.017,22.935,9.34,29.15 c3.442,4.025,7.253,5.981,11.639,5.981c3.073,0,5.861-0.984,8.554-1.934c2.793-0.988,5.681-2.007,9.106-2.007 c8.18,0,15.867-4.02,20.07-10.486C155.813,263.715,156.482,258.626,154.778,254.92z M179.1,11.71 c60.954,0,114.383,32.765,143.654,81.594c-20.008,3.745-24.262,7.505-24.536,12.791c-0.16,3.173-0.086,7.033,0,10.764 c0.068,3.531,0.154,7.053,0,9.883c-0.137,2.75,0.561,5.89,1.315,9.209c0.525,2.336,1.464,6.51,1.246,8.269 c-0.823,0.414-1.641,0.866-2.47,1.323c-2.185,1.207-4.449,2.447-5.976,2.447c-0.372,0-1.521,0-3.488-2.464 c-5.289-6.642-10.046-17.697-11.567-21.403c0.812-9.069,1.418-31.83-12.517-33.819c-5.243-0.755-11.024-0.403-15.398,0.017 c-2.573,0.246-5.066,0.475-6.799,0.246c-0.337-0.678-0.715-1.927-1.127-3.726c-0.903-3.911-2.973-5.895-6.129-5.895 c-5.604,0-5.93,3.86-6.702,13.174c-1.098,13.14-3.579,18.749-4.865,20.388c-2.265-0.706-4.866-1.169-7.822-1.689 c-5.833-1.038-12.443-2.205-18.384-5.599c-2.842-1.629-5.317-6.598-7.502-10.984c-3.654-7.325-7.788-15.636-16.729-15.636 c-1.272,0-2.576,0.194-3.882,0.569c-2.771,0.795-5.481,1.201-8.062,1.201c-4.292,0-6.838-1.124-6.844-1.124l-5.112-2.57 l-2.688,5.046c-0.3,0.558-7.167,13.783-0.189,29.488c6.916,15.584,29.388,34.253,49.104,35.903c3.168,0.263,5.443,0.62,7.067,0.978 c-1.755,0.855-4.288,1.938-6.765,2.993c-11.733,4.986-26.331,11.188-30.336,21.2c-1.341,3.351-2.293,4.772-3.213,6.156 c-2.471,3.702-3.969,6.436-5.979,19.455c-1.241,8.068-4.426,18.841-7.236,28.345c-5.135,17.337-7.502,25.902-5.263,30.94 c0.097,0.268,0.011,1.469-1.101,3.07c-1.658,2.379-5.178,4.917-10.089,4.917c-5.43,0-9.626,1.481-13,2.671 c-1.844,0.646-3.588,1.27-4.654,1.27c-0.335,0-1.124,0-2.745-1.893c-3.239-3.78-5.077-14.284-6.698-23.547 c-1.487-8.48-3.022-17.252-5.884-23.685c-5.132-11.527-11.016-17.948-17.832-25.399c-1.598-1.75-3.271-3.568-5.023-5.563 c-8.583-9.775-19.024-26.918-19.03-26.918l0,0c-1.409-2.647-14.227-26.028-29.07-32.146c-3.591-1.475-6.71-2.376-9.48-2.728 C40.572,61.208,104.165,11.71,179.1,11.71z"/> </g> </g>
<g id="SVGRepo_iconCarrier"> <g> <path style="fill:#ffffff;" d="M179.1,0C80.341,0,0,80.344,0,179.1c0,98.75,80.341,179.094,179.1,179.094 c98.75,0,179.094-80.344,179.094-179.1S277.85,0,179.1,0z M154.778,254.92c-0.44-2.876,3.062-14.729,5.627-23.375 c2.916-9.858,6.218-21.03,7.582-29.882c1.709-11.1,2.676-12.546,4.14-14.736c1.083-1.617,2.559-3.824,4.352-8.313 c2.19-5.486,16.402-11.53,24.036-14.767c4.751-2.021,8.502-3.62,10.772-5.229c6.479-4.58,6.353-9.263,5.712-11.645 c-1.944-7.116-11.916-8.837-20.391-9.546c-14.826-1.241-34.036-16.974-39.371-28.988c-2.642-5.95-2.358-11.307-1.609-14.85 c4.414,0.749,10.956,0.566,17.037-1.172c0.323-0.091,0.535-0.117,0.652-0.117c1.692,0,4.543,5.727,6.241,9.146 c2.928,5.873,6.241,12.537,12.18,15.933c7.696,4.403,16.056,5.878,22.151,6.962c2.698,0.48,5.249,0.932,6.793,1.481 c1.144,0.412,2.315,0.621,3.493,0.621c7.92,0,13.066-8.243,15.359-24.533c3.03,0.649,6.707,0.463,10.961,0.057 c3.769-0.36,8.543-0.643,12.528-0.115c2.064,1.292,3.625,11.61,2.476,22.489l-0.148,1.406l0.503,1.315 c0.264,0.663,6.313,16.296,13.838,25.745c3.648,4.563,7.902,6.882,12.648,6.882c4.534,0,8.463-2.161,11.613-3.899 c0.863-0.475,1.721-0.949,2.567-1.353c8.291-3.994,5.975-14.27,4.438-21.068c-0.48-2.173-1.099-4.877-1.029-6.007 c0.16-3.167,0.08-7.028,0-10.758c-0.058-2.71-0.12-5.427-0.08-7.828c1.841-0.835,6.604-2.504,18.028-4.494 c11.671,23.115,17.817,48.895,17.817,74.829c-0.018,91.842-74.752,166.566-166.594,166.566 c-91.857,0-166.594-74.724-166.594-166.572c0-12.471,1.569-25.354,4.674-38.328c1.164,0.074,3.402,0.466,7.136,2.001 c9.306,3.834,19.901,20.668,23.358,27.109c0.449,0.737,11.107,18.264,20.405,28.848c1.81,2.064,3.537,3.945,5.184,5.746 c6.621,7.233,11.41,12.465,15.768,22.255c2.275,5.106,3.682,13.151,5.046,20.934c2.067,11.802,4.017,22.935,9.34,29.15 c3.442,4.025,7.253,5.981,11.639,5.981c3.073,0,5.861-0.984,8.554-1.934c2.793-0.988,5.681-2.007,9.106-2.007 c8.18,0,15.867-4.02,20.07-10.486C155.813,263.715,156.482,258.626,154.778,254.92z M179.1,11.71 c60.954,0,114.383,32.765,143.654,81.594c-20.008,3.745-24.262,7.505-24.536,12.791c-0.16,3.173-0.086,7.033,0,10.764 c0.068,3.531,0.154,7.053,0,9.883c-0.137,2.75,0.561,5.89,1.315,9.209c0.525,2.336,1.464,6.51,1.246,8.269 c-0.823,0.414-1.641,0.866-2.47,1.323c-2.185,1.207-4.449,2.447-5.976,2.447c-0.372,0-1.521,0-3.488-2.464 c-5.289-6.642-10.046-17.697-11.567-21.403c0.812-9.069,1.418-31.83-12.517-33.819c-5.243-0.755-11.024-0.403-15.398,0.017 c-2.573,0.246-5.066,0.475-6.799,0.246c-0.337-0.678-0.715-1.927-1.127-3.726c-0.903-3.911-2.973-5.895-6.129-5.895 c-5.604,0-5.93,3.86-6.702,13.174c-1.098,13.14-3.579,18.749-4.865,20.388c-2.265-0.706-4.866-1.169-7.822-1.689 c-5.833-1.038-12.443-2.205-18.384-5.599c-2.842-1.629-5.317-6.598-7.502-10.984c-3.654-7.325-7.788-15.636-16.729-15.636 c-1.272,0-2.576,0.194-3.882,0.569c-2.771,0.795-5.481,1.201-8.062,1.201c-4.292,0-6.838-1.124-6.844-1.124l-5.112-2.57 l-2.688,5.046c-0.3,0.558-7.167,13.783-0.189,29.488c6.916,15.584,29.388,34.253,49.104,35.903c3.168,0.263,5.443,0.62,7.067,0.978 c-1.755,0.855-4.288,1.938-6.765,2.993c-11.733,4.986-26.331,11.188-30.336,21.2c-1.341,3.351-2.293,4.772-3.213,6.156 c-2.471,3.702-3.969,6.436-5.979,19.455c-1.241,8.068-4.426,18.841-7.236,28.345c-5.135,17.337-7.502,25.902-5.263,30.94 c0.097,0.268,0.011,1.469-1.101,3.07c-1.658,2.379-5.178,4.917-10.089,4.917c-5.43,0-9.626,1.481-13,2.671 c-1.844,0.646-3.588,1.27-4.654,1.27c-0.335,0-1.124,0-2.745-1.893c-3.239-3.78-5.077-14.284-6.698-23.547 c-1.487-8.48-3.022-17.252-5.884-23.685c-5.132-11.527-11.016-17.948-17.832-25.399c-1.598-1.75-3.271-3.568-5.023-5.563 c-8.583-9.775-19.024-26.918-19.03-26.918l0,0c-1.409-2.647-14.227-26.028-29.07-32.146c-3.591-1.475-6.71-2.376-9.48-2.728 C40.572,61.208,104.165,11.71,179.1,11.71z"/> </g> </g>
</svg>